PathFileType        4      (X/Y/Z)      C:\Users\pc\Desktop\IMUTRC\Sujet_02\Sujet_02_velo_100.trc         
DataRate	CameraRate	NumFrames	NumMarkers	Units	OrigDataRate	OrigDataStartFrame	OrigNumFrames
60.0	60.0	4	64	mm	60.0	472	943
Frame#	Time	pHipOrigin			pRightASI			pLeftASI			pRightCSI			pLeftCSI			pRightIschialTub			pLeftIschialTub			pSacrum			pL5SpinalProcess			pL3SpinalProcess			pT12SpinalProcess			pIJ			pT4SpinalProcess			pT8SpinalProcess			pPX			pC7SpinalProcess			pTopOfHead			pRightAuricularis			pLeftAuricularis			pBackOfHead			pRightAcromion			pLeftAcromion			pRightArmLatEpicondyle			pRightArmMedEpicondyle			pLeftArmLatEpicondyle			pLeftArmMedEpicondyle			pRightUlnarStyloid			pRightRadialStyloid			pRightOlecranon			pLeftUlnarStyloid			pLeftRadialStyloid			pLeftOlecranon			pRightTopOfHand			pRightPinky			pRightBallHand			pLeftTopOfHand			pLeftPinky			pLeftBallHand			pRightGreaterTrochanter			pRightKneeLatEpicondyle			pRightKneeMedEpicondyle			pRightPatella			pLeftGreaterTrochanter			pLeftKneeLatEpicondyle			pLeftKneeMedEpicondyle			pLeftPatella			pRightTibialTub			pRightLatMalleolus			pRightMedMalleolus			pLeftTibialTub			pLeftLatMalleolus			pLeftMedMalleolus			pRightHeelFoot			pRightFirstMetatarsal			pRightFifthMetatarsal			pRightPivotFoot			pRightHeelCenter			pRightToe			pLeftHeelFoot			pLeftFirstMetatarsal			pLeftFifthMetatarsal			pLeftPivotFoot			pLeftHeelCenter			pLeftToe			
		X1	Y1	Z1	X2	Y2	Z2	X3	Y3	Z3	X4	Y4	Z4	X5	Y5	Z5	X6	Y6	Z6	X7	Y7	Z7	X8	Y8	Z8	X9	Y9	Z9	X10	Y10	Z10	X11	Y11	Z11	X12	Y12	Z12	X13	Y13	Z13	X14	Y14	Z14	X15	Y15	Z15	X16	Y16	Z16	X17	Y17	Z17	X18	Y18	Z18	X19	Y19	Z19	X20	Y20	Z20	X21	Y21	Z21	X22	Y22	Z22	X23	Y23	Z23	X24	Y24	Z24	X25	Y25	Z25	X26	Y26	Z26	X27	Y27	Z27	X28	Y28	Z28	X29	Y29	Z29	X30	Y30	Z30	X31	Y31	Z31	X32	Y32	Z32	X33	Y33	Z33	X34	Y34	Z34	X35	Y35	Z35	X36	Y36	Z36	X37	Y37	Z37	X38	Y38	Z38	X39	Y39	Z39	X40	Y40	Z40	X41	Y41	Z41	X42	Y42	Z42	X43	Y43	Z43	X44	Y44	Z44	X45	Y45	Z45	X46	Y46	Z46	X47	Y47	Z47	X48	Y48	Z48	X49	Y49	Z49	X50	Y50	Z50	X51	Y51	Z51	X52	Y52	Z52	X53	Y53	Z53	X54	Y54	Z54	X55	Y55	Z55	X56	Y56	Z56	X57	Y57	Z57	X58	Y58	Z58	X59	Y59	Z59	X60	Y60	Z60	X61	Y61	Z61	X62	Y62	Z62	X63	Y63	Z63	X64	Y64	Z64	
472	7.85	0.0	1250.00218	7.654055843321067E-14	81.32818000000002	1364.87185	131.3282700000001	25.368939999999988	1365.04211	-152.2704099999999	19.807070000000007	1427.98206	116.91280000000009	-26.049990000000008	1428.09557	-115.49395999999992	-37.060219999999994	1181.3301	67.65052000000007	-59.98875	1181.38685	-48.58123999999992	-72.24757	1261.5232	14.24520000000008	-45.74355	1377.41444	10.669710000000087	6.4131800000000005	1487.97082	8.56982000000009	65.89115	1583.09017	7.207730000000092	326.05051	1599.32175	-41.94104999999992	222.07757	1712.03477	-2.837689999999909	142.45201	1662.54547	3.802500000000093	220.03444	1527.24444	-34.10902999999992	277.07199	1740.8657	-7.03746999999991	502.95207	1743.64663	-86.37926999999992	445.80101	1711.6375	0.6242900000000775	397.73055	1746.1438	-114.35887999999991	418.84296	1777.13137	-41.146499999999925	274.80184	1677.86899	189.21713000000008	234.50665	1746.20055	-205.05143999999993	314.24572	1395.00811	254.14346000000006	276.78822	1374.12272	205.61897000000005	323.78036	1460.16146	-206.41352999999995	284.84726	1442.68129	-157.66201999999996	406.0166	1136.26759	325.5397300000001	454.37083	1154.54231	298.07090000000005	269.46699	1382.97631	243.36024000000006	427.24252	1203.69109	-263.45107999999993	469.7511	1220.20645	-226.73137999999994	280.81774	1450.51332	-200.90840999999995	593.47436	1052.61251	313.50793	508.23017	1067.25499	341.88482	448.7522	1110.38787	318.78603000000004	625.25648	1161.12575	-205.22169999999994	547.10652	1153.69101	-251.24901999999997	475.93727	1182.40842	-244.60882999999995	43.643660000000004	1229.74108	173.83685000000008	325.59648	882.80517	139.61432000000002	322.41827	880.08099	53.121550000000035	359.13797	914.5873	91.08983000000003	9.25086999999999	1226.90339	-174.06386999999992	417.3106	1043.13463	-146.08424999999997	423.213	1053.06654	-60.272519999999965	437.4582	1093.36173	-106.69711999999996	360.21629	827.29997	91.20334000000003	104.02969	480.59108	60.10226000000002	112.59952	487.06101	-7.491499999999977	465.55132	1004.93933	-109.98883999999997	286.60663	615.89211	-169.01278	292.28201	609.0249	-101.19199999999996	7.377989999999999	411.2947	-7.377989999999976	161.46453	307.49202	-15.323519999999991	137.45767	301.64638	69.01261	169.41006	290.01186	30.24977000000001	40.80597	385.07445	0.2837700000000211	236.32277	241.48737	45.91381	189.38739	536.20979	-107.88894999999998	342.45236	431.61256	-122.53142999999999	314.58625	438.47977	-205.67573	348.12774	420.9996	-170.54513	222.13433	511.23812	-120.94231999999998	413.67836	374.97228	-196.31135	
473	7.867	0.0	1250.00218	7.654055843321067E-14	81.83896000000001	1365.15562	130.76073000000008	25.76621999999999	1364.19081	-152.83794999999992	20.601630000000007	1428.43609	116.06150000000008	-25.368940000000006	1427.64154	-116.34526999999991	-37.28723999999999	1181.78413	67.99104000000007	-60.27252	1181.38685	-48.240719999999925	-72.19082	1261.86373	14.24520000000008	-45.28952	1377.52795	10.102170000000086	6.980720000000001	1487.97082	7.945530000000091	66.40193	1583.03341	6.810450000000093	326.84507	1599.88929	-41.08973999999992	222.47485	1712.26179	-2.213399999999909	142.90604	1662.60222	3.916010000000093	220.88574	1527.58496	-34.05226999999992	277.46927	1741.20622	-6.0158999999999105	503.4061	1744.61145	-84.96041999999991	446.25504	1712.14828	1.9296300000000774	398.18458	1747.10861	-112.99678999999992	419.29699	1777.81241	-39.61413999999992	275.14236	1677.81224	189.7846700000001	237.00382	1747.05186	-204.3703899999999	316.23211	1395.00811	253.00839000000005	278.94487	1374.17947	204.25688000000005	326.22077	1461.18303	-205.90273999999994	287.06066	1443.58936	-157.37824999999995	407.20843	1136.04058	324.74518000000006	455.73292	1154.20179	297.50336000000004	271.51012	1383.03306	241.99815000000007	428.20733	1204.42889	-264.2456399999999	470.88618	1220.66048	-227.63943999999995	283.0879	1451.64839	-200.34086999999994	594.7797	1052.44225	312.88363	509.59226	1067.02797	341.20377	450.05754	1110.1041	318.04823000000005	626.44831	1161.57978	-206.58378999999994	548.18484	1154.3153	-252.44084999999998	477.01559	1182.97596	-245.57363999999995	45.17602000000001	1232.80579	174.0071100000001	343.0199	899.03676	143.98436000000004	339.50116	894.66672	57.54834000000004	374.74526	931.49992	94.77883000000003	6.81044999999999	1223.44141	-173.9503599999999	404.08697	1017.19814	-147.50309999999996	411.69198	1028.37864	-61.97513999999997	427.58304	1066.97122	-109.30779999999996	374.23448	841.77219	94.55181000000003	101.53253	508.45719	57.94562000000002	110.55638	515.49466	-9.534639999999975	455.3924	981.61352	-112.31574999999997	294.15488	584.45051	-168.21823	301.30586	577.92382	-100.51095999999998	1.8161199999999993	444.09839	-9.534639999999973	151.19209	333.71227	-18.78549999999999	127.24199	328.26391	65.60738	158.57008	315.55106	26.674280000000007	34.10903	416.34579	-2.156639999999977	223.2694	264.01862	41.71403	201.47595	499.83061	-108.05920999999998	359.53525	403.0654	-123.21247	331.55563	409.25157	-206.30002	365.83492	393.19024	-171.33969	235.47147	476.61831	-121.22608999999999	433.59894	350.6249	-197.27617	
474	7.883	0.0	1250.00218	7.654055843321067E-14	82.17949000000002	1365.32588	130.36345000000009	26.39050999999999	1363.45301	-153.23522999999992	21.225920000000006	1428.83337	115.38045000000008	-24.517640000000007	1427.30102	-117.08305999999992	-37.68451999999999	1182.23816	68.21805000000008	-60.49954	1181.44361	-48.01369999999992	-72.19082	1262.261	14.131690000000082	-44.77874	1377.64145	9.534640000000087	7.491500000000001	1488.02757	7.548250000000091	66.85596	1583.09017	6.753700000000093	327.58287	1600.8541	-39.55738999999992	222.5316	1712.77257	-1.0215699999999088	143.13305	1662.77249	4.426800000000093	221.85056	1528.1525	-33.42797999999992	277.46927	1741.88727	-4.313289999999911	503.68987	1745.97354	-82.63351999999992	446.4253	1713.1131	4.029520000000077	398.46835	1748.47071	-110.78338999999991	419.41049	1778.89074	-37.28723999999992	275.14236	1678.15276	191.0332500000001	239.33072	1747.95992	-203.17855999999992	317.99147	1395.17837	252.10033000000007	281.04476	1374.46324	203.12181000000007	328.60443	1462.37486	-205.67572999999993	289.2173	1444.55417	-157.37824999999995	408.34351	1136.04058	323.9506200000001	457.03826	1154.14504	296.87907000000007	273.32624	1383.31683	240.91983000000005	429.11539	1205.16669	-265.2672099999999	472.02126	1221.17126	-228.77451999999994	285.30129	1452.89698	-200.17060999999995	596.14179	1052.61251	312.25934	510.8976	1067.14148	340.52273	451.36288	1110.1041	317.3671800000001	627.6969	1162.6581	-208.11613999999994	549.37667	1155.22336	-253.80293999999998	478.15067	1183.71376	-246.76546999999994	46.311090000000014	1235.92724	174.23413000000008	361.12435	917.652	148.29765000000003	357.60562	911.80636	61.97514000000004	390.97685	951.02323	98.46782000000003	4.14302999999999	1220.37671	-173.8368499999999	387.17434	988.65099	-148.92193999999998	396.70898	1000.56928	-63.67774999999996	414.41616	1037.28899	-111.86171999999998	389.67151	858.85508	97.78678000000002	102.83786	538.02591	57.378080000000026	111.91847	545.63092	-9.988669999999974	442.05526	954.88249	-114.75615999999997	297.4466	550.96578	-167.36692	306.01643	544.83637	-99.77315999999999	0.5107799999999993	478.66145	-10.158929999999971	145.34645	362.5432	-20.94214999999999	121.50986	357.3786	63.50749000000001	152.15691	343.70094	24.29062000000001	31.72537	449.66026	-3.121459999999974	214.81309	289.55783	38.64933	209.13771	462.31636	-108.39973999999998	371.34004	372.75888	-123.89352	343.41717	378.43426	-207.03782	378.264	363.56477	-172.02073	244.1548	440.74992	-121.62336999999998	447.84414	324.40465	-198.07072	
475	7.9	0.0	1250.00218	7.654055843321067E-14	82.29299000000002	1365.32588	130.3067000000001	27.355329999999988	1362.94222	-153.46223999999992	21.623190000000008	1429.06039	114.98317000000009	-23.439310000000006	1427.13076	-117.59384999999992	-38.138549999999995	1182.52193	68.27481000000007	-60.6698	1181.55712	-48.01369999999992	-72.13406	1262.60152	13.847920000000082	-44.38146	1377.69821	9.080610000000087	7.945530000000001	1488.02757	7.26448000000009	67.08298	1583.14692	6.9239600000000925	328.20716	1601.93242	-37.28723999999992	222.36134	1713.34011	0.6242900000000913	143.13305	1662.9995	5.2781000000000935	222.70186	1528.83355	-32.12263999999992	277.24226	1742.73857	-2.15663999999991	503.63312	1747.73291	-79.73906999999991	446.36854	1714.36168	6.6969500000000775	398.5251	1750.05981	-108.05920999999991	419.24023	1780.25283	-34.39279999999992	274.80184	1678.77705	192.79262000000008	241.37386	1748.81123	-201.58945999999992	319.63733	1395.6324	251.41928000000004	282.91763	1375.08753	202.15699000000006	330.81783	1463.50993	-205.39195999999995	291.26044	1445.34872	-157.37824999999995	409.30832	1136.26759	323.2128200000001	458.11658	1154.37205	296.31153000000006	275.02886	1383.88437	240.01177000000007	429.9667	1206.018	-266.34552999999994	473.04282	1221.62529	-229.90959999999995	287.34443	1454.03205	-199.94359999999995	597.22011	1052.95303	311.74856	511.97592	1067.42525	340.01194	452.38445	1110.38787	316.79965000000004	628.88873	1163.90669	-209.64848999999995	550.51174	1156.24493	-255.16502999999997	479.22899	1184.45156	-247.95729999999995	46.821880000000014	1238.53792	174.46114000000009	378.71803	937.85635	152.04340000000002	375.71008	930.98914	65.77764000000003	406.81115	972.3059	101.98656000000003	1.4188399999999894	1217.76603	-173.78009999999992	368.04832	960.72813	-150.39753999999996	379.45583	973.0437	-65.43711999999996	399.03588	1007.89052	-114.30212999999998	405.16529	878.03786	100.90824000000003	107.77544	567.25411	58.05913000000003	116.85605	575.42666	-9.307619999999972	426.1642	928.43522	-117.02630999999997	295.68724	519.35392	-166.62912	305.27863	513.79204	-99.09210999999999	3.5754899999999994	511.46514	-9.988669999999969	145.00593	391.37412	-22.304239999999982	121.28285	386.03927	62.145400000000016	151.36235	371.85082	22.75827000000001	33.93877	481.49914	-3.3484699999999727	212.54294	315.77808	36.435930000000006	210.67006	427.63979	-108.45648999999999	375.82359	343.64419	-123.89352000000001	348.01423	348.86554	-207.09457	383.20158	334.96086	-172.07749	246.42495	407.37869	-121.73687999999999	454.20057	298.24116	-198.18423	
